<svg width="20" height="18" viewBox="0 0 20 18" fill="none" xmlns="http://www.w3.org/2000/svg">
<path d="M19.0589 17.4088V10.7088C19.0589 7.11881 17.1427 5.44881 14.5877 5.44881C12.5264 5.44881 11.6027 6.58256 11.0877 7.37881V5.72381H7.20391C7.25516 6.82006 7.20391 17.4088 7.20391 17.4088H11.0877V10.8826C11.0877 10.5338 11.1127 10.1851 11.2164 9.93631C11.4964 9.23881 12.1352 8.51631 13.2077 8.51631C14.6139 8.51631 15.1752 9.58756 15.1752 11.1576V17.4088H19.0589ZM3.11266 4.12881C4.46641 4.12881 5.31016 3.23131 5.31016 2.10881C5.28516 0.962559 4.46641 0.0913086 3.13766 0.0913086C1.80891 0.0913086 0.941406 0.962559 0.941406 2.10881C0.941406 3.23006 1.78516 4.12881 3.08766 4.12881H3.11266ZM5.05391 17.4088V5.72381H1.17141V17.4088H5.05391Z" fill="#243A3A"/>
</svg>
